<?xml version="1.0" encoding="UTF-8" standalone="no"?>
<!DOCTYPE svg PUBLIC "-//W3C//DTD SVG 1.1//EN" "http://www.w3.org/Graphics/SVG/1.1/DTD/svg11.dtd">
<svg width="100%" height="100%" viewBox="0 0 132 52" version="1.1" xmlns="http://www.w3.org/2000/svg" xmlns:xlink="http://www.w3.org/1999/xlink" xml:space="preserve" xmlns:serif="http://www.serif.com/" style="fill-rule:evenodd;clip-rule:evenodd;stroke-linejoin:round;stroke-miterlimit:2;">
    <g id="banner_environnement_blanc">
        <path id="Fill-3" d="M81.641,22.593C81.395,23.232 81.107,23.685 80.778,23.953C80.448,24.221 80.043,24.354 79.564,24.354C79.297,24.354 79.033,24.326 78.771,24.266L78.771,23.576C78.966,23.618 79.183,23.64 79.422,23.64C80.025,23.64 80.454,23.307 80.71,22.644L81.034,21.835L78.698,16.124L79.639,16.124L80.908,19.363C81.185,20.102 81.359,20.636 81.425,20.965L81.466,20.965C81.513,20.788 81.608,20.487 81.754,20.061C81.901,19.633 82.379,18.321 83.19,16.124L84.13,16.124L81.641,22.593ZM76.996,17.294C76.732,16.931 76.323,16.749 75.77,16.749C75.17,16.749 74.74,16.919 74.475,17.256C74.211,17.592 74.079,18.159 74.079,18.959C74.079,19.756 74.215,20.327 74.487,20.672C74.757,21.016 75.192,21.188 75.791,21.188C76.33,21.188 76.732,20.994 76.996,20.61C77.26,20.224 77.393,19.671 77.393,18.948C77.393,18.208 77.26,17.657 76.996,17.294ZM77.664,21.133C77.24,21.651 76.651,21.908 75.896,21.908C75.52,21.908 75.175,21.84 74.865,21.704C74.553,21.567 74.289,21.358 74.079,21.073L74.015,21.073L73.83,21.803L73.202,21.803L73.202,13.738L74.079,13.738L74.079,15.697C74.079,16.137 74.065,16.531 74.037,16.879L74.079,16.879C74.488,16.313 75.094,16.03 75.896,16.03C76.657,16.03 77.248,16.285 77.669,16.794C78.09,17.304 78.302,18.025 78.302,18.959C78.302,19.891 78.089,20.617 77.664,21.133ZM68.087,18.979C68.087,18.175 67.949,17.6 67.677,17.256C67.403,16.911 66.968,16.739 66.369,16.739C65.854,16.739 65.46,16.936 65.187,17.329C64.914,17.72 64.777,18.274 64.777,18.99C64.777,19.716 64.914,20.264 65.185,20.634C65.456,21.003 65.854,21.188 66.379,21.188C66.978,21.188 67.412,21.028 67.682,20.708C67.953,20.388 68.087,19.872 68.087,19.16L68.087,18.979ZM68.25,21.803L68.133,21.043L68.087,21.043C67.681,21.619 67.075,21.908 66.269,21.908C65.512,21.908 64.922,21.654 64.501,21.146C64.08,20.638 63.869,19.916 63.869,18.979C63.869,18.043 64.08,17.316 64.503,16.796C64.926,16.279 65.515,16.019 66.269,16.019C67.053,16.019 67.656,16.3 68.076,16.859L68.144,16.859L68.107,16.45L68.087,16.05L68.087,13.738L68.962,13.738L68.962,21.803L68.25,21.803ZM61.603,17.172C61.354,16.885 61.003,16.739 60.545,16.739C60.079,16.739 59.71,16.887 59.432,17.186C59.156,17.484 58.993,17.895 58.944,18.419L61.972,18.419C61.972,17.877 61.849,17.462 61.603,17.172ZM58.922,19.118C58.941,19.786 59.112,20.292 59.438,20.638C59.763,20.983 60.223,21.156 60.815,21.156C61.438,21.156 62.054,21.028 62.665,20.773L62.665,21.541C62.353,21.672 62.06,21.765 61.784,21.822C61.508,21.88 61.173,21.908 60.784,21.908C59.926,21.908 59.25,21.652 58.756,21.141C58.262,20.63 58.014,19.919 58.014,19.01C58.014,18.094 58.243,17.367 58.703,16.828C59.164,16.288 59.78,16.019 60.556,16.019C61.281,16.019 61.856,16.253 62.279,16.721C62.702,17.191 62.913,17.808 62.913,18.574L62.913,19.118L58.922,19.118ZM55.921,20.923C56.086,21.106 56.314,21.197 56.603,21.197C56.758,21.197 56.908,21.186 57.051,21.164C57.196,21.141 57.311,21.118 57.396,21.094L57.396,21.752C57.301,21.797 57.16,21.835 56.974,21.864C56.79,21.894 56.623,21.908 56.475,21.908C55.355,21.908 54.795,21.329 54.795,20.172L54.795,16.791L53.966,16.791L53.966,16.377L54.795,16.019L55.165,14.807L55.673,14.807L55.673,16.124L57.352,16.124L57.352,16.791L55.673,16.791L55.673,20.135C55.673,20.477 55.756,20.74 55.921,20.923ZM51.508,16.739C51.093,16.739 50.778,16.804 50.567,16.931C50.355,17.059 50.251,17.236 50.251,17.46C50.251,17.612 50.29,17.741 50.369,17.85C50.449,17.956 50.577,18.058 50.752,18.155C50.928,18.251 51.266,18.391 51.767,18.574C52.455,18.821 52.917,19.067 53.159,19.317C53.4,19.565 53.522,19.878 53.522,20.254C53.522,20.783 53.321,21.191 52.919,21.477C52.518,21.765 51.954,21.908 51.228,21.908C50.46,21.908 49.861,21.789 49.432,21.551L49.432,20.752C49.71,20.89 50.008,21 50.327,21.078C50.645,21.158 50.953,21.197 51.249,21.197C51.707,21.197 52.06,21.126 52.307,20.983C52.553,20.84 52.676,20.62 52.676,20.327C52.676,20.106 52.578,19.916 52.383,19.76C52.187,19.603 51.806,19.416 51.24,19.201C50.7,19.005 50.317,18.834 50.089,18.686C49.863,18.539 49.693,18.373 49.581,18.186C49.472,18 49.415,17.777 49.415,17.517C49.415,17.054 49.608,16.69 49.991,16.422C50.375,16.154 50.902,16.019 51.571,16.019C52.195,16.019 52.805,16.143 53.4,16.393L53.089,17.093C52.506,16.858 51.98,16.739 51.508,16.739ZM47.109,17.312C46.811,16.938 46.372,16.749 45.791,16.749C45.216,16.749 44.782,16.936 44.491,17.305C44.198,17.675 44.051,18.226 44.051,18.959C44.051,19.684 44.199,20.237 44.495,20.617C44.792,20.998 45.226,21.188 45.801,21.188C46.375,21.188 46.811,20.998 47.109,20.62C47.406,20.242 47.556,19.688 47.556,18.959C47.556,18.236 47.406,17.688 47.109,17.312ZM47.75,21.128C47.276,21.649 46.618,21.908 45.779,21.908C45.262,21.908 44.802,21.789 44.401,21.551C43.999,21.313 43.688,20.969 43.47,20.524C43.252,20.077 43.142,19.556 43.142,18.959C43.142,18.033 43.378,17.31 43.851,16.794C44.323,16.279 44.978,16.019 45.817,16.019C46.626,16.019 47.271,16.283 47.748,16.813C48.226,17.341 48.464,18.056 48.464,18.959C48.464,19.884 48.226,20.608 47.75,21.128ZM41.003,21.803L41.003,18.13C41.003,17.667 40.895,17.321 40.68,17.093C40.465,16.864 40.129,16.749 39.671,16.749C39.062,16.749 38.616,16.912 38.336,17.237C38.056,17.562 37.916,18.094 37.916,18.834L37.916,21.803L37.039,21.803L37.039,13.738L37.916,13.738L37.916,16.18C37.916,16.473 37.901,16.718 37.873,16.911L37.927,16.911C38.099,16.638 38.344,16.423 38.664,16.265C38.984,16.109 39.347,16.03 39.756,16.03C40.463,16.03 40.995,16.195 41.349,16.525C41.702,16.854 41.88,17.379 41.88,18.098L41.88,21.803L41.003,21.803Z" style="fill:rgb(25,165,154);"/>
        <path id="Fill-5" d="M120.743,23.278C118.129,26.01 114.446,23.753 109.754,26.902C103.976,30.778 105.596,35.989 107.021,37.653C107.318,36.108 108.522,33.446 110.526,31.237C113.436,28.029 118.115,25.995 118.129,26.01C118.143,26.025 114.328,28.505 111.952,31.534C110.087,33.913 109.203,36.145 108.69,38.138C108.69,38.138 115.532,38.279 117.774,34.575C120.535,30.014 120.803,23.931 120.743,23.278" style="fill:rgb(25,165,154);"/>
        <path id="Fill-7" d="M104.858,37.947L101.113,37.947L99.356,34.534L98.103,35.735L98.103,37.947L94.706,37.947L94.706,26.2L98.103,26.2L98.103,32.262L100.587,29.436L104.677,29.436L101.567,32.417L104.858,37.947ZM90.129,33.908C89.673,34.068 89.197,34.21 88.701,34.333C88.025,34.509 87.598,34.683 87.418,34.853C87.233,35.029 87.141,35.23 87.141,35.454C87.141,35.711 87.231,35.921 87.415,36.083C87.597,36.246 87.865,36.327 88.219,36.327C88.589,36.327 88.934,36.24 89.253,36.062C89.57,35.886 89.795,35.673 89.93,35.418C90.063,35.165 90.129,34.835 90.129,34.428L90.129,33.908ZM90.678,37.947C90.552,37.726 90.47,37.561 90.432,37.445C90.394,37.331 90.356,37.15 90.318,36.905C89.881,37.316 89.45,37.609 89.019,37.785C88.43,38.021 87.748,38.138 86.969,38.138C85.934,38.138 85.147,37.904 84.612,37.433C84.076,36.964 83.807,36.385 83.807,35.695C83.807,35.049 84.001,34.517 84.387,34.099C84.775,33.683 85.489,33.374 86.528,33.171C87.774,32.925 88.584,32.753 88.954,32.654C89.324,32.554 89.715,32.426 90.129,32.265C90.129,31.864 90.046,31.584 89.878,31.424C89.709,31.263 89.412,31.183 88.987,31.183C88.442,31.183 88.033,31.269 87.76,31.439C87.548,31.574 87.378,31.824 87.247,32.193L84.069,31.864C84.189,31.319 84.362,30.89 84.587,30.579C84.814,30.265 85.138,29.996 85.564,29.765C85.869,29.599 86.287,29.472 86.823,29.381C87.356,29.289 87.933,29.245 88.553,29.245C89.55,29.245 90.35,29.3 90.956,29.409C91.56,29.518 92.063,29.747 92.466,30.094C92.75,30.334 92.972,30.675 93.137,31.115C93.3,31.556 93.381,31.976 93.381,32.377L93.381,36.135C93.381,36.536 93.406,36.85 93.459,37.076C93.51,37.303 93.623,37.593 93.796,37.947L90.678,37.947ZM79.437,28.419L82.762,28.419L82.762,26.2L79.437,26.2L79.437,28.419ZM79.437,37.947L82.762,37.947L82.762,29.436L79.437,29.436L79.437,37.947ZM74.658,37.947L74.658,33.266C74.658,32.733 74.558,32.354 74.356,32.133C74.155,31.911 73.872,31.801 73.507,31.801C73.104,31.801 72.777,31.95 72.525,32.25C72.275,32.549 72.15,33.085 72.15,33.859L72.15,37.947L68.827,37.947L68.827,29.436L71.921,29.436L71.921,30.823C72.384,30.257 72.852,29.852 73.327,29.609C73.8,29.366 74.378,29.245 75.058,29.245C75.979,29.245 76.7,29.512 77.218,30.05C77.739,30.588 77.999,31.417 77.999,32.537L77.999,37.947L74.658,37.947ZM64.251,33.908C63.792,34.068 63.317,34.21 62.822,34.333C62.146,34.509 61.718,34.683 61.539,34.853C61.353,35.029 61.261,35.23 61.261,35.454C61.261,35.711 61.353,35.921 61.536,36.083C61.717,36.246 61.986,36.327 62.339,36.327C62.709,36.327 63.054,36.24 63.373,36.062C63.691,35.886 63.917,35.673 64.049,35.418C64.185,35.165 64.251,34.835 64.251,34.428L64.251,33.908ZM64.798,37.947C64.673,37.726 64.59,37.561 64.552,37.445C64.515,37.331 64.475,37.15 64.439,36.905C64.003,37.316 63.57,37.609 63.14,37.785C62.551,38.021 61.868,38.138 61.089,38.138C60.054,38.138 59.27,37.904 58.733,37.433C58.197,36.964 57.929,36.385 57.929,35.695C57.929,35.049 58.121,34.517 58.509,34.099C58.895,33.683 59.608,33.374 60.649,33.171C61.896,32.925 62.705,32.753 63.075,32.654C63.445,32.554 63.837,32.426 64.251,32.265C64.251,31.864 64.165,31.584 63.996,31.424C63.829,31.263 63.533,31.183 63.108,31.183C62.564,31.183 62.154,31.269 61.881,31.439C61.67,31.574 61.498,31.824 61.368,32.193L58.19,31.864C58.31,31.319 58.483,30.89 58.709,30.579C58.935,30.265 59.26,29.996 59.684,29.765C59.99,29.599 60.408,29.472 60.942,29.381C61.477,29.289 62.053,29.245 62.675,29.245C63.67,29.245 64.472,29.3 65.076,29.409C65.68,29.518 66.185,29.747 66.587,30.094C66.871,30.334 67.094,30.675 67.256,31.115C67.42,31.556 67.503,31.976 67.503,32.377L67.503,36.135C67.503,36.536 67.528,36.85 67.58,37.076C67.631,37.303 67.745,37.593 67.919,37.947L64.798,37.947ZM53.689,37.947L53.689,33.099C53.689,32.715 53.612,32.428 53.461,32.241C53.237,31.947 52.961,31.801 52.63,31.801C52.24,31.801 51.923,31.939 51.686,32.217C51.447,32.494 51.328,32.94 51.328,33.555L51.328,37.947L47.996,37.947L47.996,33.26C47.996,32.885 47.972,32.632 47.929,32.497C47.858,32.284 47.734,32.111 47.561,31.981C47.387,31.849 47.181,31.784 46.946,31.784C46.564,31.784 46.249,31.926 46.003,32.209C45.757,32.493 45.634,32.958 45.634,33.603L45.634,37.947L42.301,37.947L42.301,29.436L45.405,29.436L45.405,30.678C45.853,30.161 46.305,29.793 46.759,29.572C47.215,29.353 47.764,29.245 48.407,29.245C49.1,29.245 49.649,29.365 50.053,29.605C50.456,29.845 50.786,30.203 51.042,30.678C51.564,30.123 52.039,29.745 52.469,29.545C52.9,29.344 53.429,29.245 54.06,29.245C54.99,29.245 55.715,29.515 56.239,30.058C56.761,30.6 57.021,31.448 57.021,32.601L57.021,37.947L53.689,37.947ZM37.539,32.028C37.23,31.668 36.844,31.488 36.387,31.488C35.903,31.488 35.503,31.671 35.187,32.037C34.871,32.403 34.713,32.961 34.713,33.708C34.713,34.466 34.869,35.027 35.182,35.39C35.495,35.754 35.89,35.935 36.363,35.935C36.842,35.935 37.234,35.757 37.544,35.398C37.85,35.041 38.004,34.466 38.004,33.676C38.004,32.939 37.85,32.39 37.539,32.028ZM40.019,36.885C39.134,37.721 37.91,38.138 36.347,38.138C34.952,38.138 33.826,37.791 32.965,37.096C31.908,36.237 31.381,35.109 31.381,33.716C31.381,32.417 31.827,31.347 32.719,30.506C33.612,29.665 34.819,29.245 36.339,29.245C38.076,29.245 39.388,29.738 40.276,30.727C40.989,31.522 41.344,32.503 41.344,33.668C41.344,34.976 40.903,36.049 40.019,36.885ZM31.86,28.172C31.464,28.107 31.142,28.074 30.898,28.074C30.598,28.074 30.383,28.124 30.253,28.222C30.122,28.321 30.028,28.478 29.974,28.691C29.947,28.808 29.933,29.057 29.933,29.436L31.517,29.436L31.517,31.824L29.933,31.824L29.933,37.947L26.602,37.947L26.602,31.824L25.359,31.824L25.359,29.436L26.602,29.436L26.602,29.051C26.602,28.705 26.639,28.323 26.715,27.907C26.792,27.489 26.935,27.149 27.145,26.884C27.354,26.62 27.648,26.407 28.026,26.244C28.404,26.081 28.959,26 29.688,26C30.272,26 31.118,26.065 32.228,26.2L31.86,28.172ZM21.577,37.947L21.577,33.266C21.577,32.733 21.477,32.354 21.275,32.133C21.073,31.911 20.791,31.801 20.426,31.801C20.023,31.801 19.695,31.95 19.445,32.25C19.195,32.549 19.069,33.085 19.069,33.859L19.069,37.947L15.745,37.947L15.745,29.436L18.84,29.436L18.84,30.823C19.304,30.257 19.77,29.852 20.246,29.609C20.719,29.366 21.296,29.245 21.977,29.245C22.898,29.245 23.618,29.512 24.137,30.05C24.657,30.588 24.918,31.417 24.918,32.537L24.918,37.947L21.577,37.947ZM10.966,28.419L14.29,28.419L14.29,26.2L10.966,26.2L10.966,28.419ZM10.966,37.947L14.29,37.947L14.29,29.436L10.966,29.436L10.966,37.947Z" style="fill:rgb(25,165,154);"/>
    </g>
</svg>
