<?xml version="1.0" encoding="UTF-8"?>
<svg width="132px" height="52px" viewBox="0 0 132 52" version="1.1" xmlns="http://www.w3.org/2000/svg" xmlns:xlink="http://www.w3.org/1999/xlink">
    <!-- Generator: Sketch 54.1 (76490) - https://sketchapp.com -->
    <title>banner_environnement_blanc</title>
    <desc>Created with Sketch.</desc>
    <g id="banner_environnement_blanc" stroke="none" stroke-width="1" fill="none" fill-rule="evenodd">
        <polygon id="Fill-2" stroke="#E0E0E0" fill="#FFFFFF" points="0 51.999 132 51.999 132 0.001 0 0.001"></polygon>
        <path d="M81.6407,22.5929 C81.3947,23.2319 81.1067,23.6849 80.7777,23.9529 C80.4477,24.2209 80.0427,24.3539 79.5637,24.3539 C79.2967,24.3539 79.0327,24.3259 78.7707,24.2659 L78.7707,23.5759 C78.9657,23.6179 79.1827,23.6399 79.4217,23.6399 C80.0247,23.6399 80.4537,23.3069 80.7097,22.6439 L81.0337,21.8349 L78.6977,16.1239 L79.6387,16.1239 L80.9077,19.3629 C81.1847,20.1019 81.3587,20.6359 81.4247,20.9649 L81.4657,20.9649 C81.5127,20.7879 81.6077,20.4869 81.7537,20.0609 C81.9007,19.6329 82.3787,18.3209 83.1897,16.1239 L84.1297,16.1239 L81.6407,22.5929 Z M76.9957,17.2939 C76.7317,16.9309 76.3227,16.7489 75.7697,16.7489 C75.1697,16.7489 74.7397,16.9189 74.4747,17.2559 C74.2107,17.5919 74.0787,18.1589 74.0787,18.9589 C74.0787,19.7559 74.2147,20.3269 74.4867,20.6719 C74.7567,21.0159 75.1917,21.1879 75.7907,21.1879 C76.3297,21.1879 76.7317,20.9939 76.9957,20.6099 C77.2597,20.2239 77.3927,19.6709 77.3927,18.9479 C77.3927,18.2079 77.2597,17.6569 76.9957,17.2939 L76.9957,17.2939 Z M77.6637,21.1329 C77.2397,21.6509 76.6507,21.9079 75.8957,21.9079 C75.5197,21.9079 75.1747,21.8399 74.8647,21.7039 C74.5527,21.5669 74.2887,21.3579 74.0787,21.0729 L74.0147,21.0729 L73.8297,21.8029 L73.2017,21.8029 L73.2017,13.7379 L74.0787,13.7379 L74.0787,15.6969 C74.0787,16.1369 74.0647,16.5309 74.0367,16.8789 L74.0787,16.8789 C74.4877,16.3129 75.0937,16.0299 75.8957,16.0299 C76.6567,16.0299 77.2477,16.2849 77.6687,16.7939 C78.0897,17.3039 78.3017,18.0249 78.3017,18.9589 C78.3017,19.8909 78.0887,20.6169 77.6637,21.1329 L77.6637,21.1329 Z M68.0867,18.9789 C68.0867,18.1749 67.9487,17.5999 67.6767,17.2559 C67.4027,16.9109 66.9677,16.7389 66.3687,16.7389 C65.8537,16.7389 65.4597,16.9359 65.1867,17.3289 C64.9137,17.7199 64.7767,18.2739 64.7767,18.9899 C64.7767,19.7159 64.9137,20.2639 65.1847,20.6339 C65.4557,21.0029 65.8537,21.1879 66.3787,21.1879 C66.9777,21.1879 67.4117,21.0279 67.6817,20.7079 C67.9527,20.3879 68.0867,19.8719 68.0867,19.1599 L68.0867,18.9789 Z M68.2497,21.8029 L68.1327,21.0429 L68.0867,21.0429 C67.6807,21.6189 67.0747,21.9079 66.2687,21.9079 C65.5117,21.9079 64.9217,21.6539 64.5007,21.1459 C64.0797,20.6379 63.8687,19.9159 63.8687,18.9789 C63.8687,18.0429 64.0797,17.3159 64.5027,16.7959 C64.9257,16.2789 65.5147,16.0189 66.2687,16.0189 C67.0527,16.0189 67.6557,16.2999 68.0757,16.8589 L68.1437,16.8589 L68.1067,16.4499 L68.0867,16.0499 L68.0867,13.7379 L68.9617,13.7379 L68.9617,21.8029 L68.2497,21.8029 Z M61.6027,17.1719 C61.3537,16.8849 61.0027,16.7389 60.5447,16.7389 C60.0787,16.7389 59.7097,16.8869 59.4317,17.1859 C59.1557,17.4839 58.9927,17.8949 58.9437,18.4189 L61.9717,18.4189 C61.9717,17.8769 61.8487,17.4619 61.6027,17.1719 L61.6027,17.1719 Z M58.9217,19.1179 C58.9407,19.7859 59.1117,20.2919 59.4377,20.6379 C59.7627,20.9829 60.2227,21.1559 60.8147,21.1559 C61.4377,21.1559 62.0537,21.0279 62.6647,20.7729 L62.6647,21.5409 C62.3527,21.6719 62.0597,21.7649 61.7837,21.8219 C61.5077,21.8799 61.1727,21.9079 60.7837,21.9079 C59.9257,21.9079 59.2497,21.6519 58.7557,21.1409 C58.2617,20.6299 58.0137,19.9189 58.0137,19.0099 C58.0137,18.0939 58.2427,17.3669 58.7027,16.8279 C59.1637,16.2879 59.7797,16.0189 60.5557,16.0189 C61.2807,16.0189 61.8557,16.2529 62.2787,16.7209 C62.7017,17.1909 62.9127,17.8079 62.9127,18.5739 L62.9127,19.1179 L58.9217,19.1179 Z M55.9207,20.9229 C56.0857,21.1059 56.3137,21.1969 56.6027,21.1969 C56.7577,21.1969 56.9077,21.1859 57.0507,21.1639 C57.1957,21.1409 57.3107,21.1179 57.3957,21.0939 L57.3957,21.7519 C57.3007,21.7969 57.1597,21.8349 56.9737,21.8639 C56.7897,21.8939 56.6227,21.9079 56.4747,21.9079 C55.3547,21.9079 54.7947,21.3289 54.7947,20.1719 L54.7947,16.7909 L53.9657,16.7909 L53.9657,16.3769 L54.7947,16.0189 L55.1647,14.8069 L55.6727,14.8069 L55.6727,16.1239 L57.3517,16.1239 L57.3517,16.7909 L55.6727,16.7909 L55.6727,20.1349 C55.6727,20.4769 55.7557,20.7399 55.9207,20.9229 L55.9207,20.9229 Z M51.5077,16.7389 C51.0927,16.7389 50.7777,16.8039 50.5667,16.9309 C50.3547,17.0589 50.2507,17.2359 50.2507,17.4599 C50.2507,17.6119 50.2897,17.7409 50.3687,17.8499 C50.4487,17.9559 50.5767,18.0579 50.7517,18.1549 C50.9277,18.2509 51.2657,18.3909 51.7667,18.5739 C52.4547,18.8209 52.9167,19.0669 53.1587,19.3169 C53.3997,19.5649 53.5217,19.8779 53.5217,20.2539 C53.5217,20.7829 53.3207,21.1909 52.9187,21.4769 C52.5177,21.7649 51.9537,21.9079 51.2277,21.9079 C50.4597,21.9079 49.8607,21.7889 49.4317,21.5509 L49.4317,20.7519 C49.7097,20.8899 50.0077,20.9999 50.3267,21.0779 C50.6447,21.1579 50.9527,21.1969 51.2487,21.1969 C51.7067,21.1969 52.0597,21.1259 52.3067,20.9829 C52.5527,20.8399 52.6757,20.6199 52.6757,20.3269 C52.6757,20.1059 52.5777,19.9159 52.3827,19.7599 C52.1867,19.6029 51.8057,19.4159 51.2397,19.2009 C50.6997,19.0049 50.3167,18.8339 50.0887,18.6859 C49.8627,18.5389 49.6927,18.3729 49.5807,18.1859 C49.4717,17.9999 49.4147,17.7769 49.4147,17.5169 C49.4147,17.0539 49.6077,16.6899 49.9907,16.4219 C50.3747,16.1539 50.9017,16.0189 51.5707,16.0189 C52.1947,16.0189 52.8047,16.1429 53.3997,16.3929 L53.0887,17.0929 C52.5057,16.8579 51.9797,16.7389 51.5077,16.7389 L51.5077,16.7389 Z M47.1087,17.3119 C46.8107,16.9379 46.3717,16.7489 45.7907,16.7489 C45.2157,16.7489 44.7817,16.9359 44.4907,17.3049 C44.1977,17.6749 44.0507,18.2259 44.0507,18.9589 C44.0507,19.6839 44.1987,20.2369 44.4947,20.6169 C44.7917,20.9979 45.2257,21.1879 45.8007,21.1879 C46.3747,21.1879 46.8107,20.9979 47.1087,20.6199 C47.4057,20.2419 47.5557,19.6879 47.5557,18.9589 C47.5557,18.2359 47.4057,17.6879 47.1087,17.3119 L47.1087,17.3119 Z M47.7497,21.1279 C47.2757,21.6489 46.6177,21.9079 45.7787,21.9079 C45.2617,21.9079 44.8017,21.7889 44.4007,21.5509 C43.9987,21.3129 43.6877,20.9689 43.4697,20.5239 C43.2517,20.0769 43.1417,19.5559 43.1417,18.9589 C43.1417,18.0329 43.3777,17.3099 43.8507,16.7939 C44.3227,16.2789 44.9777,16.0189 45.8167,16.0189 C46.6257,16.0189 47.2707,16.2829 47.7477,16.8129 C48.2257,17.3409 48.4637,18.0559 48.4637,18.9589 C48.4637,19.8839 48.2257,20.6079 47.7497,21.1279 L47.7497,21.1279 Z M41.0027,21.8029 L41.0027,18.1299 C41.0027,17.6669 40.8947,17.3209 40.6797,17.0929 C40.4647,16.8639 40.1287,16.7489 39.6707,16.7489 C39.0617,16.7489 38.6157,16.9119 38.3357,17.2369 C38.0557,17.5619 37.9157,18.0939 37.9157,18.8339 L37.9157,21.8029 L37.0387,21.8029 L37.0387,13.7379 L37.9157,13.7379 L37.9157,16.1799 C37.9157,16.4729 37.9007,16.7179 37.8727,16.9109 L37.9267,16.9109 C38.0987,16.6379 38.3437,16.4229 38.6637,16.2649 C38.9837,16.1089 39.3467,16.0299 39.7557,16.0299 C40.4627,16.0299 40.9947,16.1949 41.3487,16.5249 C41.7017,16.8539 41.8797,17.3789 41.8797,18.0979 L41.8797,21.8029 L41.0027,21.8029 Z" id="Fill-3" fill="#19A59A"></path>
        <path d="M120.7432,23.278 C118.1292,26.01 114.4462,23.753 109.7542,26.902 C103.9762,30.778 105.5962,35.989 107.0212,37.653 C107.3182,36.108 108.5222,33.446 110.5262,31.237 C113.4362,28.029 118.1152,25.995 118.1292,26.01 C118.1432,26.025 114.3282,28.505 111.9522,31.534 C110.0872,33.913 109.2032,36.145 108.6902,38.138 C108.6902,38.138 115.5322,38.279 117.7742,34.575 C120.5352,30.014 120.8032,23.931 120.7432,23.278" id="Fill-5" fill="#19A59A"></path>
        <path d="M104.8575,37.9474 L101.1125,37.9474 L99.3555,34.5344 L98.1025,35.7354 L98.1025,37.9474 L94.7055,37.9474 L94.7055,26.2004 L98.1025,26.2004 L98.1025,32.2624 L100.5865,29.4364 L104.6775,29.4364 L101.5665,32.4174 L104.8575,37.9474 Z M90.1295,33.9084 C89.6725,34.0684 89.1965,34.2104 88.7005,34.3334 C88.0255,34.5094 87.5975,34.6834 87.4185,34.8534 C87.2325,35.0294 87.1405,35.2304 87.1405,35.4544 C87.1405,35.7114 87.2305,35.9214 87.4145,36.0834 C87.5965,36.2464 87.8645,36.3274 88.2185,36.3274 C88.5885,36.3274 88.9335,36.2404 89.2525,36.0624 C89.5695,35.8864 89.7945,35.6734 89.9295,35.4184 C90.0625,35.1654 90.1295,34.8354 90.1295,34.4284 L90.1295,33.9084 Z M90.6775,37.9474 C90.5515,37.7264 90.4695,37.5614 90.4315,37.4454 C90.3945,37.3314 90.3555,37.1504 90.3175,36.9054 C89.8805,37.3164 89.4495,37.6094 89.0195,37.7854 C88.4295,38.0214 87.7475,38.1384 86.9685,38.1384 C85.9335,38.1384 85.1475,37.9044 84.6115,37.4334 C84.0755,36.9644 83.8065,36.3854 83.8065,35.6954 C83.8065,35.0494 84.0015,34.5174 84.3865,34.0994 C84.7745,33.6834 85.4885,33.3744 86.5275,33.1714 C87.7735,32.9254 88.5835,32.7534 88.9535,32.6544 C89.3235,32.5544 89.7145,32.4264 90.1295,32.2654 C90.1295,31.8644 90.0455,31.5844 89.8775,31.4244 C89.7085,31.2634 89.4115,31.1834 88.9865,31.1834 C88.4415,31.1834 88.0325,31.2694 87.7605,31.4394 C87.5475,31.5744 87.3775,31.8244 87.2465,32.1934 L84.0685,31.8644 C84.1885,31.3194 84.3615,30.8904 84.5865,30.5794 C84.8135,30.2654 85.1385,29.9964 85.5635,29.7654 C85.8685,29.5994 86.2875,29.4724 86.8225,29.3814 C87.3555,29.2894 87.9325,29.2454 88.5525,29.2454 C89.5495,29.2454 90.3495,29.3004 90.9555,29.4094 C91.5595,29.5184 92.0625,29.7474 92.4655,30.0944 C92.7495,30.3344 92.9715,30.6754 93.1365,31.1154 C93.2995,31.5564 93.3805,31.9764 93.3805,32.3774 L93.3805,36.1354 C93.3805,36.5364 93.4065,36.8504 93.4585,37.0764 C93.5095,37.3034 93.6225,37.5934 93.7965,37.9474 L90.6775,37.9474 Z M79.4365,28.4194 L82.7615,28.4194 L82.7615,26.2004 L79.4365,26.2004 L79.4365,28.4194 Z M79.4365,37.9474 L82.7615,37.9474 L82.7615,29.4364 L79.4365,29.4364 L79.4365,37.9474 Z M74.6575,37.9474 L74.6575,33.2664 C74.6575,32.7334 74.5575,32.3544 74.3555,32.1334 C74.1545,31.9114 73.8715,31.8014 73.5065,31.8014 C73.1035,31.8014 72.7765,31.9504 72.5255,32.2504 C72.2755,32.5494 72.1495,33.0854 72.1495,33.8594 L72.1495,37.9474 L68.8265,37.9474 L68.8265,29.4364 L71.9205,29.4364 L71.9205,30.8234 C72.3835,30.2574 72.8515,29.8524 73.3265,29.6094 C73.7995,29.3664 74.3775,29.2454 75.0575,29.2454 C75.9785,29.2454 76.6995,29.5124 77.2175,30.0504 C77.7385,30.5884 77.9985,31.4174 77.9985,32.5374 L77.9985,37.9474 L74.6575,37.9474 Z M64.2505,33.9084 C63.7925,34.0684 63.3165,34.2104 62.8215,34.3334 C62.1455,34.5094 61.7175,34.6834 61.5395,34.8534 C61.3535,35.0294 61.2605,35.2304 61.2605,35.4544 C61.2605,35.7114 61.3525,35.9214 61.5355,36.0834 C61.7165,36.2464 61.9855,36.3274 62.3385,36.3274 C62.7085,36.3274 63.0535,36.2404 63.3725,36.0624 C63.6905,35.8864 63.9165,35.6734 64.0495,35.4184 C64.1845,35.1654 64.2505,34.8354 64.2505,34.4284 L64.2505,33.9084 Z M64.7975,37.9474 C64.6725,37.7264 64.5895,37.5614 64.5525,37.4454 C64.5145,37.3314 64.4755,37.1504 64.4385,36.9054 C64.0025,37.3164 63.5695,37.6094 63.1395,37.7854 C62.5515,38.0214 61.8685,38.1384 61.0885,38.1384 C60.0535,38.1384 59.2695,37.9044 58.7325,37.4334 C58.1965,36.9644 57.9285,36.3854 57.9285,35.6954 C57.9285,35.0494 58.1215,34.5174 58.5085,34.0994 C58.8945,33.6834 59.6075,33.3744 60.6485,33.1714 C61.8955,32.9254 62.7045,32.7534 63.0745,32.6544 C63.4445,32.5544 63.8365,32.4264 64.2505,32.2654 C64.2505,31.8644 64.1655,31.5844 63.9965,31.4244 C63.8285,31.2634 63.5325,31.1834 63.1075,31.1834 C62.5635,31.1834 62.1535,31.2694 61.8805,31.4394 C61.6695,31.5744 61.4975,31.8244 61.3675,32.1934 L58.1895,31.8644 C58.3095,31.3194 58.4825,30.8904 58.7085,30.5794 C58.9345,30.2654 59.2595,29.9964 59.6835,29.7654 C59.9895,29.5994 60.4085,29.4724 60.9415,29.3814 C61.4765,29.2894 62.0525,29.2454 62.6745,29.2454 C63.6705,29.2454 64.4715,29.3004 65.0765,29.4094 C65.6795,29.5184 66.1845,29.7474 66.5865,30.0944 C66.8705,30.3344 67.0935,30.6754 67.2555,31.1154 C67.4195,31.5564 67.5025,31.9764 67.5025,32.3774 L67.5025,36.1354 C67.5025,36.5364 67.5285,36.8504 67.5795,37.0764 C67.6305,37.3034 67.7445,37.5934 67.9185,37.9474 L64.7975,37.9474 Z M53.6885,37.9474 L53.6885,33.0994 C53.6885,32.7154 53.6125,32.4284 53.4605,32.2414 C53.2375,31.9474 52.9605,31.8014 52.6295,31.8014 C52.2395,31.8014 51.9235,31.9394 51.6855,32.2174 C51.4465,32.4944 51.3275,32.9404 51.3275,33.5554 L51.3275,37.9474 L47.9955,37.9474 L47.9955,33.2604 C47.9955,32.8854 47.9725,32.6324 47.9295,32.4974 C47.8575,32.2844 47.7345,32.1114 47.5605,31.9814 C47.3865,31.8494 47.1805,31.7844 46.9455,31.7844 C46.5635,31.7844 46.2485,31.9264 46.0025,32.2094 C45.7565,32.4934 45.6335,32.9584 45.6335,33.6034 L45.6335,37.9474 L42.3015,37.9474 L42.3015,29.4364 L45.4045,29.4364 L45.4045,30.6784 C45.8525,30.1614 46.3045,29.7934 46.7585,29.5724 C47.2145,29.3534 47.7635,29.2454 48.4065,29.2454 C49.1005,29.2454 49.6485,29.3654 50.0525,29.6054 C50.4555,29.8454 50.7855,30.2034 51.0415,30.6784 C51.5635,30.1234 52.0395,29.7454 52.4685,29.5454 C52.8995,29.3444 53.4295,29.2454 54.0595,29.2454 C54.9905,29.2454 55.7145,29.5154 56.2385,30.0584 C56.7605,30.6004 57.0205,31.4484 57.0205,32.6014 L57.0205,37.9474 L53.6885,37.9474 Z M37.5395,32.0284 C37.2295,31.6684 36.8445,31.4884 36.3865,31.4884 C35.9025,31.4884 35.5025,31.6714 35.1865,32.0374 C34.8705,32.4034 34.7125,32.9614 34.7125,33.7084 C34.7125,34.4664 34.8685,35.0274 35.1815,35.3904 C35.4945,35.7544 35.8895,35.9354 36.3625,35.9354 C36.8415,35.9354 37.2345,35.7574 37.5435,35.3984 C37.8505,35.0414 38.0035,34.4664 38.0035,33.6764 C38.0035,32.9394 37.8495,32.3904 37.5395,32.0284 L37.5395,32.0284 Z M40.0185,36.8854 C39.1335,37.7214 37.9095,38.1384 36.3465,38.1384 C34.9515,38.1384 33.8255,37.7914 32.9645,37.0964 C31.9075,36.2374 31.3805,35.1094 31.3805,33.7164 C31.3805,32.4174 31.8265,31.3474 32.7195,30.5064 C33.6115,29.6654 34.8185,29.2454 36.3385,29.2454 C38.0755,29.2454 39.3875,29.7384 40.2755,30.7274 C40.9885,31.5224 41.3445,32.5034 41.3445,33.6684 C41.3445,34.9764 40.9025,36.0494 40.0185,36.8854 L40.0185,36.8854 Z M31.8605,28.1724 C31.4635,28.1074 31.1415,28.0744 30.8975,28.0744 C30.5975,28.0744 30.3825,28.1244 30.2525,28.2224 C30.1215,28.3214 30.0275,28.4784 29.9735,28.6914 C29.9465,28.8084 29.9335,29.0574 29.9335,29.4364 L31.5175,29.4364 L31.5175,31.8244 L29.9335,31.8244 L29.9335,37.9474 L26.6015,37.9474 L26.6015,31.8244 L25.3585,31.8244 L25.3585,29.4364 L26.6015,29.4364 L26.6015,29.0514 C26.6015,28.7054 26.6385,28.3234 26.7155,27.9074 C26.7915,27.4894 26.9345,27.1494 27.1445,26.8844 C27.3535,26.6204 27.6475,26.4074 28.0265,26.2444 C28.4035,26.0814 28.9585,26.0004 29.6875,26.0004 C30.2715,26.0004 31.1175,26.0654 32.2285,26.2004 L31.8605,28.1724 Z M21.5765,37.9474 L21.5765,33.2664 C21.5765,32.7334 21.4765,32.3544 21.2745,32.1334 C21.0725,31.9114 20.7905,31.8014 20.4255,31.8014 C20.0225,31.8014 19.6945,31.9504 19.4445,32.2504 C19.1945,32.5494 19.0685,33.0854 19.0685,33.8594 L19.0685,37.9474 L15.7445,37.9474 L15.7445,29.4364 L18.8395,29.4364 L18.8395,30.8234 C19.3035,30.2574 19.7705,29.8524 20.2455,29.6094 C20.7185,29.3664 21.2955,29.2454 21.9765,29.2454 C22.8975,29.2454 23.6175,29.5124 24.1365,30.0504 C24.6565,30.5884 24.9175,31.4174 24.9175,32.5374 L24.9175,37.9474 L21.5765,37.9474 Z M10.9655,28.4194 L14.2895,28.4194 L14.2895,26.2004 L10.9655,26.2004 L10.9655,28.4194 Z M10.9655,37.9474 L14.2895,37.9474 L14.2895,29.4364 L10.9655,29.4364 L10.9655,37.9474 Z" id="Fill-7" fill="#19A59A"></path>
    </g>
</svg>