<?xml version="1.0" encoding="UTF-8" standalone="no"?><!DOCTYPE svg PUBLIC "-//W3C//DTD SVG 1.1//EN" "http://www.w3.org/Graphics/SVG/1.1/DTD/svg11.dtd"><svg width="100%" height="100%" viewBox="0 0 83 12" version="1.1" xmlns="http://www.w3.org/2000/svg" xmlns:xlink="http://www.w3.org/1999/xlink" xml:space="preserve" xmlns:serif="http://www.serif.com/" style="fill-rule:evenodd;clip-rule:evenodd;stroke-linejoin:round;stroke-miterlimit:2;"><path id="Fill-5" d="M82.333,0c-1.961,2.049 -4.723,0.356 -8.242,2.718c-4.334,2.907 -3.118,6.815 -2.05,8.063c0.223,-1.159 1.126,-3.155 2.629,-4.812c2.182,-2.406 5.692,-3.931 5.702,-3.92c0.011,0.011 -2.85,1.871 -4.633,4.143c-1.398,1.784 -2.061,3.458 -2.446,4.953c0,0 5.131,0.106 6.813,-2.672c2.071,-3.421 2.272,-7.983 2.227,-8.473" style="fill:#19a59a;"/><path id="Fill-7" d="M70.419,11.002l-2.809,0l-1.318,-2.56l-0.939,0.901l0,1.659l-2.548,0l0,-8.811l2.548,0l0,4.547l1.863,-2.119l3.067,0l-2.332,2.235l2.468,4.148Zm-11.047,-3.029c-0.342,0.119 -0.699,0.226 -1.071,0.318c-0.507,0.132 -0.827,0.263 -0.962,0.39c-0.139,0.132 -0.208,0.283 -0.208,0.451c0,0.193 0.068,0.35 0.206,0.472c0.136,0.122 0.337,0.183 0.603,0.183c0.277,0 0.536,-0.066 0.775,-0.199c0.238,-0.132 0.407,-0.292 0.508,-0.483c0.1,-0.19 0.149,-0.437 0.149,-0.743l0,-0.389Zm0.412,3.029c-0.095,-0.166 -0.156,-0.29 -0.185,-0.377c-0.028,-0.085 -0.057,-0.221 -0.085,-0.405c-0.328,0.309 -0.651,0.528 -0.974,0.66c-0.442,0.177 -0.954,0.265 -1.538,0.265c-0.776,0 -1.366,-0.175 -1.768,-0.529c-0.402,-0.352 -0.603,-0.786 -0.603,-1.303c0,-0.485 0.145,-0.884 0.435,-1.197c0.291,-0.312 0.826,-0.544 1.605,-0.696c0.935,-0.185 1.542,-0.314 1.82,-0.388c0.277,-0.075 0.571,-0.171 0.881,-0.292c0,-0.301 -0.062,-0.511 -0.188,-0.63c-0.127,-0.121 -0.35,-0.181 -0.668,-0.181c-0.409,0 -0.716,0.064 -0.921,0.192c-0.159,0.101 -0.286,0.289 -0.384,0.565l-2.384,-0.247c0.09,-0.408 0.22,-0.73 0.389,-0.963c0.17,-0.236 0.413,-0.438 0.732,-0.611c0.229,-0.124 0.543,-0.219 0.945,-0.288c0.399,-0.069 0.832,-0.102 1.297,-0.102c0.748,0 1.348,0.042 1.802,0.123c0.453,0.082 0.831,0.254 1.133,0.514c0.213,0.18 0.379,0.436 0.503,0.766c0.122,0.33 0.183,0.645 0.183,0.946l0,2.819c0,0.3 0.019,0.536 0.059,0.705c0.038,0.171 0.123,0.388 0.252,0.654l-2.338,0Zm-8.431,-7.146l2.494,0l0,-1.665l-2.494,0l0,1.665Zm0,7.146l2.494,0l0,-6.384l-2.494,0.001l0,6.383Zm-3.584,0l0,-3.511c0,-0.4 -0.075,-0.684 -0.227,-0.85c-0.15,-0.166 -0.363,-0.249 -0.636,-0.249c-0.303,0 -0.548,0.112 -0.737,0.337c-0.187,0.224 -0.281,0.626 -0.281,1.207l0,3.066l-2.492,0l0,-6.384l2.32,0.001l0,1.04c0.347,-0.425 0.698,-0.729 1.055,-0.911c0.354,-0.182 0.788,-0.273 1.298,-0.273c0.691,0 1.231,0.2 1.62,0.604c0.391,0.404 0.586,1.025 0.586,1.865l0,4.058l-2.506,0Zm-7.805,-3.03c-0.345,0.12 -0.701,0.227 -1.072,0.319c-0.507,0.132 -0.828,0.263 -0.962,0.39c-0.14,0.132 -0.209,0.283 -0.209,0.451c0,0.193 0.069,0.35 0.206,0.472c0.136,0.122 0.338,0.183 0.603,0.183c0.277,0 0.536,-0.066 0.775,-0.199c0.239,-0.132 0.408,-0.292 0.507,-0.483c0.102,-0.19 0.152,-0.437 0.152,-0.743l0,-0.39Zm0.41,3.03c-0.094,-0.166 -0.156,-0.29 -0.185,-0.377c-0.027,-0.085 -0.057,-0.221 -0.084,-0.405c-0.327,0.308 -0.652,0.528 -0.975,0.66c-0.441,0.177 -0.954,0.265 -1.538,0.265c-0.776,0 -1.364,-0.176 -1.767,-0.529c-0.402,-0.352 -0.603,-0.786 -0.603,-1.303c0,-0.485 0.144,-0.884 0.435,-1.197c0.29,-0.312 0.824,-0.544 1.605,-0.696c0.935,-0.185 1.542,-0.314 1.82,-0.388c0.277,-0.075 0.571,-0.171 0.882,-0.292c0,-0.301 -0.065,-0.511 -0.192,-0.631c-0.125,-0.12 -0.347,-0.18 -0.666,-0.18c-0.408,0 -0.715,0.064 -0.92,0.192c-0.158,0.101 -0.287,0.288 -0.385,0.565l-2.383,-0.247c0.09,-0.408 0.22,-0.73 0.389,-0.963c0.17,-0.236 0.413,-0.438 0.731,-0.611c0.23,-0.124 0.543,-0.22 0.944,-0.288c0.401,-0.069 0.833,-0.102 1.3,-0.102c0.746,0 1.347,0.041 1.8,0.123c0.453,0.082 0.832,0.254 1.134,0.514c0.213,0.18 0.38,0.436 0.501,0.766c0.123,0.33 0.186,0.645 0.186,0.946l0,2.819c0,0.3 0.018,0.536 0.057,0.705c0.039,0.171 0.124,0.388 0.255,0.654l-2.341,0Zm-8.332,0l0,-3.636c0,-0.288 -0.058,-0.504 -0.171,-0.644c-0.168,-0.22 -0.375,-0.33 -0.623,-0.33c-0.293,0 -0.53,0.104 -0.708,0.312c-0.179,0.208 -0.269,0.542 -0.269,1.004l0,3.294l-2.499,0l0,-3.516c0,-0.281 -0.018,-0.471 -0.05,-0.572c-0.053,-0.16 -0.146,-0.289 -0.276,-0.387c-0.13,-0.099 -0.285,-0.148 -0.461,-0.148c-0.287,0 -0.523,0.107 -0.707,0.319c-0.185,0.213 -0.277,0.562 -0.277,1.046l0,3.258l-2.5,0l0,-6.384l2.328,0l0,0.932c0.336,-0.388 0.675,-0.664 1.016,-0.83c0.342,-0.164 0.753,-0.245 1.236,-0.245c0.519,0 0.931,0.09 1.234,0.27c0.302,0.18 0.55,0.449 0.742,0.805c0.391,-0.416 0.748,-0.7 1.07,-0.85c0.323,-0.151 0.72,-0.225 1.193,-0.225c0.698,0 1.242,0.203 1.635,0.61c0.391,0.406 0.586,1.042 0.586,1.907l0,4.01l-2.499,0Zm-12.112,-4.44c-0.232,-0.27 -0.522,-0.405 -0.864,-0.405c-0.363,0 -0.663,0.138 -0.9,0.412c-0.237,0.275 -0.356,0.693 -0.356,1.253c0,0.569 0.117,0.99 0.352,1.262c0.235,0.273 0.531,0.409 0.886,0.409c0.359,0 0.653,-0.134 0.885,-0.403c0.23,-0.268 0.345,-0.699 0.345,-1.292c0,-0.552 -0.115,-0.964 -0.348,-1.236Zm1.86,3.643c-0.664,0.627 -1.582,0.94 -2.754,0.94c-1.047,0 -1.891,-0.26 -2.537,-0.782c-0.793,-0.644 -1.188,-1.49 -1.188,-2.535c0,-0.974 0.335,-1.776 1.004,-2.407c0.669,-0.631 1.575,-0.946 2.715,-0.946c1.302,0 2.286,0.37 2.952,1.112c0.535,0.596 0.801,1.332 0.801,2.205c0,0.981 -0.33,1.786 -0.993,2.413Zm-6.12,-6.535c-0.297,-0.048 -0.538,-0.073 -0.721,-0.073c-0.225,0 -0.386,0.037 -0.484,0.111c-0.098,0.074 -0.169,0.192 -0.209,0.352c-0.02,0.087 -0.031,0.274 -0.031,0.558l1.188,0l0,1.791l-1.188,0l0,4.593l-2.498,0l0,-4.593l-0.932,0l0,-1.791l0.932,0l0,-0.288c0,-0.26 0.028,-0.546 0.085,-0.858c0.057,-0.314 0.165,-0.569 0.322,-0.768c0.157,-0.198 0.377,-0.357 0.661,-0.48c0.283,-0.122 0.7,-0.183 1.246,-0.183c0.438,0 1.073,0.049 1.905,0.15l-0.276,1.479Zm-7.712,7.332l0,-3.511c0,-0.4 -0.075,-0.684 -0.226,-0.85c-0.152,-0.166 -0.363,-0.249 -0.637,-0.249c-0.302,0 -0.548,0.112 -0.736,0.337c-0.187,0.224 -0.282,0.626 -0.282,1.207l0,3.066l-2.493,0l0,-6.384l2.321,0l0,1.041c0.348,-0.425 0.698,-0.729 1.055,-0.911c0.355,-0.182 0.787,-0.273 1.298,-0.273c0.691,0 1.231,0.2 1.62,0.604c0.39,0.403 0.586,1.025 0.586,1.865l0,4.058l-2.506,0Zm-7.958,-7.146l2.493,0l0,-1.665l-2.493,0l0,1.665Zm0,7.146l2.493,0l0,-6.384l-2.493,0l0,6.384Z" style="fill:#19a59a;"/></svg>