<svg id="Calque_1" data-name="Calque 1" xmlns="http://www.w3.org/2000/svg" viewBox="0 0 489.4 66.3"><defs><style>.cls-1{fill:#fff;}</style></defs><title>logo_infomaniak_environnement_blanc</title><path class="cls-1" d="M528.2,250.5c-11.7,12.1-28.1,2.1-49,16.1-25.8,17.3-18.6,40.5-12.2,48,1.3-6.9,6.7-18.8,15.6-28.6,13-14.3,33.8-23.4,33.9-23.4s-16.9,11.2-27.5,24.7a76.5,76.5,0,0,0-14.6,29.4s30.5.6,40.5-15.9C527.2,280.5,528.4,253.4,528.2,250.5Z" transform="translate(-38.7 -250.5)"/><path class="cls-1" d="M38.7,315.9v-38H53.6v38Zm0-52.4H53.6v9.9H38.7v-9.9ZM86,315.9V295c0-2.4-.4-4.1-1.3-5.1a5.2,5.2,0,0,0-3.8-1.4,5.4,5.4,0,0,0-4.4,2c-1.1,1.3-1.6,3.7-1.6,7.1v18.3H60.1v-38H73.8v6.2a21.6,21.6,0,0,1,6.3-5.4,16.5,16.5,0,0,1,7.7-1.6c4.1,0,7.3,1.2,9.7,3.6s3.4,6.1,3.4,11v24.2Zm45.9-43.6a28.3,28.3,0,0,0-4.3-.5,5.4,5.4,0,0,0-2.9.7,3.7,3.7,0,0,0-1.2,2.1,19.6,19.6,0,0,0-.2,3.3h7.1v10.7h-7.1v27.3H108.5V288.6h-5.6V277.9h5.6v-1.7a24.3,24.3,0,0,1,.5-5.1,9.2,9.2,0,0,1,1.9-4.6,9.8,9.8,0,0,1,3.9-2.8,20.2,20.2,0,0,1,7.4-1.1,100.7,100.7,0,0,1,11.3.9l-1.6,8.8Zm36.4,38.8c-4,3.8-9.4,5.6-16.4,5.6s-11.2-1.5-15.1-4.6a18.6,18.6,0,0,1-7-15.1c0-5.8,1.9-10.6,5.9-14.3s9.4-5.6,16.2-5.6,13.6,2.2,17.5,6.6a20.3,20.3,0,0,1-1.1,27.4Zm-11.1-21.6a6.5,6.5,0,0,0-5.1-2.4,6.8,6.8,0,0,0-5.4,2.4q-2.1,2.4-2.1,7.5c0,3.3.7,5.9,2.1,7.5a6.8,6.8,0,0,0,5.3,2.4,6.4,6.4,0,0,0,5.2-2.4c1.4-1.6,2.1-4.2,2.1-7.7s-.7-5.7-2.1-7.3Zm72,26.4V294.3a6.1,6.1,0,0,0-1-3.9,4.4,4.4,0,0,0-3.7-1.9,5.3,5.3,0,0,0-4.2,1.8c-1.1,1.3-1.6,3.2-1.6,6v19.6H203.8V295a12.4,12.4,0,0,0-.3-3.4,3.9,3.9,0,0,0-1.6-2.3,4.4,4.4,0,0,0-2.7-.9,5.3,5.3,0,0,0-4.3,1.9c-1.1,1.2-1.6,3.3-1.6,6.2v19.4H178.4v-38h13.9v5.6a20.4,20.4,0,0,1,6-5,18.1,18.1,0,0,1,7.4-1.4,13.9,13.9,0,0,1,7.3,1.6,10.9,10.9,0,0,1,4.4,4.8,22.2,22.2,0,0,1,6.4-5.1,16.7,16.7,0,0,1,7.1-1.3c4.1,0,7.3,1.2,9.7,3.6s3.5,6.2,3.5,11.3v23.9Zm49.5,0-1.1-2.3c-.1-.5-.3-1.3-.5-2.4a15.6,15.6,0,0,1-5.8,3.9,23.1,23.1,0,0,1-9.1,1.6c-4.6,0-8.1-1-10.5-3.1a10,10,0,0,1-3.6-7.8,10.2,10.2,0,0,1,2.6-7.1c1.7-1.8,4.9-3.2,9.5-4.1l10.9-2.3a46.3,46.3,0,0,0,5.2-1.8,5.1,5.1,0,0,0-1.1-3.7,6,6,0,0,0-4-1.1,10.4,10.4,0,0,0-5.5,1.2,6.7,6.7,0,0,0-2.3,3.3l-14.1-1.5a15.1,15.1,0,0,1,2.3-5.7,12,12,0,0,1,4.3-3.6,17.7,17.7,0,0,1,5.6-1.7,47.5,47.5,0,0,1,7.8-.6,62.1,62.1,0,0,1,10.7.7,13.4,13.4,0,0,1,6.7,3.1,9.4,9.4,0,0,1,3,4.5,16.8,16.8,0,0,1,1.1,5.6v16.8a22.6,22.6,0,0,0,.3,4.2,24.8,24.8,0,0,0,1.6,3.9Zm-2.4-18c-2,.7-4.2,1.3-6.4,1.9s-4.9,1.5-5.7,2.3a3.7,3.7,0,0,0-1.2,2.6,3.8,3.8,0,0,0,1.2,2.9,5.3,5.3,0,0,0,3.6,1,9.2,9.2,0,0,0,4.6-1.1,7.6,7.6,0,0,0,3-2.9,9.3,9.3,0,0,0,.9-4.4v-2.3Zm46.4,18V295a8.2,8.2,0,0,0-1.3-5.1,5.2,5.2,0,0,0-3.8-1.4,5.3,5.3,0,0,0-4.4,2c-1.1,1.3-1.7,3.7-1.7,7.1v18.3H296.7v-38h13.8v6.2a20.4,20.4,0,0,1,6.3-5.4,16.3,16.3,0,0,1,7.7-1.6q6.2,0,9.6,3.6c2.3,2.4,3.5,6.1,3.5,11v24.2Zm21.3,0v-38h14.8v38Zm0-52.4h14.8v9.9H344v-9.9Zm50.1,52.4-1.1-2.3c-.1-.5-.3-1.3-.5-2.4a16.5,16.5,0,0,1-5.8,3.9,23.1,23.1,0,0,1-9.1,1.6c-4.6,0-8.1-1-10.5-3.1a10,10,0,0,1-3.6-7.8,10.2,10.2,0,0,1,2.6-7.1c1.7-1.8,4.9-3.2,9.5-4.1l10.8-2.3a47.5,47.5,0,0,0,5.3-1.8c0-1.8-.4-3-1.2-3.7s-2-1.1-3.9-1.1a10,10,0,0,0-5.5,1.2,6.7,6.7,0,0,0-2.3,3.3l-14.1-1.5A15.1,15.1,0,0,1,367,283a12,12,0,0,1,4.3-3.6,16.9,16.9,0,0,1,5.6-1.7,47.2,47.2,0,0,1,7.7-.6,62.6,62.6,0,0,1,10.8.7,13.9,13.9,0,0,1,6.7,3.1,10.2,10.2,0,0,1,3,4.5,16.8,16.8,0,0,1,1.1,5.6v16.8a22.6,22.6,0,0,0,.3,4.2,16.6,16.6,0,0,0,1.5,3.9Zm-2.4-18-6.4,1.9c-3,.7-4.9,1.5-5.7,2.3a3.8,3.8,0,0,0-1.3,2.6,3.6,3.6,0,0,0,1.3,2.9,5.3,5.3,0,0,0,3.6,1,9.5,9.5,0,0,0,4.6-1.1,7.6,7.6,0,0,0,3-2.9,9.3,9.3,0,0,0,.9-4.4v-2.3Zm65.6,18H440.6l-7.8-15.2-5.6,5.3v9.9H412.1V263.5h15.1v27l11.1-12.6h18.2l-13.8,13.3,14.6,24.7Z" transform="translate(-38.7 -250.5)"/></svg>